<mxfile host="Electron" agent="Mozilla/5.0 (X11; Linux x86_64) AppleWebKit/537.36 (KHTML, like Gecko) draw.io/27.0.5 Chrome/134.0.6998.205 Electron/35.3.0 Safari/537.36" version="27.0.5">
  <diagram name="Page-1" id="EF95RXOkAe6jpXl8hsVO">
    <mxGraphModel dx="1106" dy="1381" grid="1" gridSize="10" guides="1" tooltips="1" connect="1" arrows="1" fold="1" page="1" pageScale="1" pageWidth="850" pageHeight="1100" math="0" shadow="0">
      <root>
        <mxCell id="0" />
        <mxCell id="1" parent="0" />
        <mxCell id="Xn5FnCG-qSh6JUQlaOpy-1" value="" style="rounded=0;whiteSpace=wrap;html=1;fillColor=#f5f5f5;fontColor=#333333;strokeColor=#666666;" parent="1" vertex="1">
          <mxGeometry x="280" y="200" width="140" height="280" as="geometry" />
        </mxCell>
        <mxCell id="Xn5FnCG-qSh6JUQlaOpy-9" value="i_b_addr" style="rounded=0;whiteSpace=wrap;html=1;" parent="1" vertex="1">
          <mxGeometry x="270" y="310" width="70" height="20" as="geometry" />
        </mxCell>
        <mxCell id="Xn5FnCG-qSh6JUQlaOpy-23" value="" style="rounded=0;whiteSpace=wrap;html=1;" parent="1" vertex="1">
          <mxGeometry x="370" y="270" width="60" height="20" as="geometry" />
        </mxCell>
        <mxCell id="Xn5FnCG-qSh6JUQlaOpy-24" value="" style="rounded=0;whiteSpace=wrap;html=1;" parent="1" vertex="1">
          <mxGeometry x="370" y="310" width="60" height="20" as="geometry" />
        </mxCell>
        <mxCell id="Xn5FnCG-qSh6JUQlaOpy-26" value="o_a_data" style="text;html=1;align=center;verticalAlign=middle;whiteSpace=wrap;rounded=0;" parent="1" vertex="1">
          <mxGeometry x="385" y="270" width="25" height="20" as="geometry" />
        </mxCell>
        <mxCell id="Xn5FnCG-qSh6JUQlaOpy-28" value="o_b_data" style="text;html=1;align=center;verticalAlign=middle;whiteSpace=wrap;rounded=0;" parent="1" vertex="1">
          <mxGeometry x="387.5" y="310" width="20" height="20" as="geometry" />
        </mxCell>
        <mxCell id="Bh93guLTJY_uSwbG0Cge-1" value="i_a_addr" style="rounded=0;whiteSpace=wrap;html=1;" parent="1" vertex="1">
          <mxGeometry x="270" y="270" width="70" height="20" as="geometry" />
        </mxCell>
        <mxCell id="Bh93guLTJY_uSwbG0Cge-2" value="i_command" style="rounded=0;whiteSpace=wrap;html=1;" parent="1" vertex="1">
          <mxGeometry x="270" y="230" width="70" height="20" as="geometry" />
        </mxCell>
        <mxCell id="Bh93guLTJY_uSwbG0Cge-3" value="i_w_ena" style="rounded=0;whiteSpace=wrap;html=1;" parent="1" vertex="1">
          <mxGeometry x="270" y="350" width="70" height="20" as="geometry" />
        </mxCell>
        <mxCell id="Bh93guLTJY_uSwbG0Cge-4" value="i_w_addr" style="rounded=0;whiteSpace=wrap;html=1;" parent="1" vertex="1">
          <mxGeometry x="270" y="390" width="70" height="20" as="geometry" />
        </mxCell>
        <mxCell id="Bh93guLTJY_uSwbG0Cge-5" value="i_w_data" style="rounded=0;whiteSpace=wrap;html=1;" parent="1" vertex="1">
          <mxGeometry x="270" y="430" width="70" height="20" as="geometry" />
        </mxCell>
      </root>
    </mxGraphModel>
  </diagram>
</mxfile>
